<?xml version="1.0" encoding="utf-8"?>
<!-- Generator: Adobe Illustrator 27.6.1, SVG Export Plug-In . SVG Version: 6.00 Build 0)  -->
<svg version="1.1" id="Layer_1" xmlns="http://www.w3.org/2000/svg" xmlns:xlink="http://www.w3.org/1999/xlink" x="0px" y="0px"
	 viewBox="0 0 20 20" style="enable-background:new 0 0 20 20;" xml:space="preserve">
<style type="text/css">
	.st0{fill:#737473;}
	.st1{fill:#FFFFFF;}
</style>
<g>
	<path class="st0" d="M4.14,1.73c-1.87,0-3.4,1.52-3.4,3.4s1.52,3.4,3.4,3.4c1.87,0,3.4-1.52,3.4-3.4S6.01,1.73,4.14,1.73z"/>
	<path class="st0" d="M18.76,4.62h-8.28c-0.28,0-0.5,0.25-0.5,0.55c0,0.3,0.22,0.55,0.5,0.55h8.28c0.28,0,0.5-0.25,0.5-0.55
		C19.26,4.87,19.03,4.62,18.76,4.62z"/>
	<g>
		<path class="st0" d="M4.14,18.27c-1.87,0-3.4-1.52-3.4-3.4s1.52-3.4,3.4-3.4c1.87,0,3.4,1.52,3.4,3.4S6.01,18.27,4.14,18.27z
			 M4.14,12.48c-1.32,0-2.4,1.08-2.4,2.4c0,1.32,1.08,2.4,2.4,2.4s2.4-1.08,2.4-2.4C6.54,13.55,5.46,12.48,4.14,12.48z"/>
	</g>
	<path class="st0" d="M18.76,14.38h-8.28c-0.28,0-0.5,0.25-0.5,0.55s0.22,0.55,0.5,0.55h8.28c0.28,0,0.5-0.25,0.5-0.55
		S19.03,14.38,18.76,14.38z"/>
	<g>
		<path class="st1" d="M3.68,6.71c-0.1,0-0.2-0.04-0.27-0.12L2.28,5.37C2.14,5.22,2.14,4.99,2.29,4.84C2.45,4.7,2.68,4.71,2.82,4.86
			l0.83,0.89l1.73-2.23c0.13-0.16,0.36-0.19,0.53-0.07c0.16,0.13,0.19,0.36,0.07,0.53l-2,2.57C3.91,6.65,3.81,6.7,3.7,6.71
			C3.69,6.71,3.69,6.71,3.68,6.71z"/>
	</g>
</g>
</svg>
