<?xml version="1.0" encoding="utf-8"?>
<!-- Generator: Adobe Illustrator 27.6.1, SVG Export Plug-In . SVG Version: 6.00 Build 0)  -->
<svg version="1.1" id="Layer_1" xmlns="http://www.w3.org/2000/svg" xmlns:xlink="http://www.w3.org/1999/xlink" x="0px" y="0px"
	 viewBox="0 0 20 20" style="enable-background:new 0 0 20 20;" xml:space="preserve">
<style type="text/css">
	.st0{fill:#737473;}
</style>
<g>
	<path class="st0" d="M-78.93-19.27c-0.1-0.1-0.25-0.16-0.36-0.15l-0.03-0.01l-0.05,0.03c-0.23,0.05-0.38,0.26-0.37,0.47l0,7.68
		c-0.01,0.12,0.04,0.25,0.13,0.34c0.09,0.1,0.22,0.15,0.34,0.15c0.26,0,0.47-0.22,0.47-0.48l0-7.68
		C-78.79-19.05-78.84-19.17-78.93-19.27z"/>
	<path class="st0" d="M-82.21-19.34c-0.1-0.08-0.23-0.12-0.35-0.1l-0.1,0.01l-0.03,0.03c-0.08,0.03-0.15,0.08-0.2,0.15
		c-0.07,0.1-0.11,0.23-0.09,0.34l0.95,7.77c0.02,0.13,0.08,0.24,0.19,0.32c0.08,0.06,0.18,0.1,0.27,0.1c0.02,0,0.03,0,0.05,0
		c0.12-0.01,0.23-0.07,0.32-0.16c0.08-0.1,0.13-0.22,0.12-0.36l-0.95-7.76C-82.04-19.13-82.11-19.26-82.21-19.34z"/>
	<path class="st0" d="M-72.47-22.61c-0.11-0.89-0.81-1.59-1.6-1.59h-1.94v-0.55c0-0.91-0.65-1.65-1.45-1.65l-3.63,0
		c-0.81,0-1.44,0.73-1.44,1.65v0.55h-1.95c-0.79,0-1.48,0.68-1.59,1.59l-0.14,1.08c-0.02,0.13,0.03,0.27,0.12,0.37
		c0.09,0.1,0.22,0.16,0.35,0.16h0.03l1.5,11.07c0.11,0.89,0.81,1.59,1.59,1.59h6.68c0.79,0,1.47-0.68,1.6-1.59l1.5-11.07h0.03
		c0.13,0,0.27-0.06,0.36-0.17c0.09-0.1,0.13-0.24,0.12-0.37L-72.47-22.61z M-81.08-25.45h3.63c0.24,0,0.5,0.27,0.5,0.7v0.55h-4.63
		v-0.55C-81.58-25.18-81.32-25.45-81.08-25.45z M-75.93-9.28h-6.68c-0.26,0-0.6-0.33-0.65-0.77l-1.49-10.95h10.96l-1.49,10.95
		C-75.33-9.61-75.67-9.28-75.93-9.28z M-85.19-21.94l0.07-0.55c0.06-0.44,0.39-0.76,0.65-0.76h10.41c0.26,0,0.6,0.33,0.65,0.77
		l0.07,0.55H-85.19z"/>
	<path class="st0" d="M-76.08-19.44l-0.1,0.01l-0.03,0.03c-0.16,0.06-0.28,0.22-0.29,0.39l-0.96,7.78
		c-0.01,0.12,0.03,0.24,0.11,0.34c0.08,0.1,0.2,0.16,0.31,0.17c0.02,0,0.04,0,0.06,0c0.1,0,0.2-0.04,0.29-0.1
		c0.1-0.08,0.17-0.2,0.17-0.32l0.96-7.77c0.02-0.14-0.03-0.28-0.14-0.38C-75.8-19.41-75.94-19.46-76.08-19.44z"/>
</g>
<g>
	<path class="st0" d="M16.25,7.07C16.25,7.07,16.25,7.07,16.25,7.07c-0.36,0-0.65,0.29-0.65,0.65v7.55c0,0.74-0.6,1.34-1.34,1.34
		H4.74c-0.74,0-1.34-0.6-1.34-1.34V5.73C3.4,5,4,4.39,4.74,4.39h7.55c0.35,0,0.64-0.3,0.64-0.65c0-0.35-0.29-0.64-0.64-0.64H4.74
		C3.28,3.1,2.1,4.28,2.1,5.73v9.53c0,1.45,1.18,2.63,2.64,2.63h9.52c1.45,0,2.64-1.18,2.64-2.63V7.72
		C16.9,7.37,16.61,7.07,16.25,7.07z"/>
	<g>
		<path class="st0" d="M15.11,3.56l-6.92,6.92c-0.04,0.04-0.07,0.09-0.08,0.14l-0.34,1.23c-0.05,0.17,0.05,0.34,0.22,0.39
			c0.06,0.02,0.12,0.02,0.17,0l1.23-0.34c0.05-0.01,0.1-0.04,0.14-0.08l6.92-6.92L15.11,3.56z"/>
		<path class="st0" d="M17.17,4.17l0.46-0.46c0.37-0.37,0.37-0.97,0-1.33C17.44,2.19,17.2,2.1,16.96,2.1v0
			c-0.24,0-0.48,0.09-0.67,0.27l-0.46,0.46L17.17,4.17z"/>
	</g>
</g>
<g>
	<path class="st0" d="M71.28-21.67h1.83l4.32,12.06H75.9l-0.94-2.63h-5.55l-0.94,2.63h-1.53L71.28-21.67z M74.46-13.67l-2.26-6.41
		l-2.28,6.41H74.46z"/>
	<path class="st0" d="M87.05-9.61h-1.34v-1.48c-0.31,0.5-0.72,0.9-1.23,1.2c-0.51,0.29-1.15,0.44-1.92,0.44
		c-0.61,0-1.18-0.13-1.71-0.38c-0.53-0.25-0.98-0.59-1.36-1.03s-0.68-0.94-0.9-1.51c-0.22-0.58-0.33-1.19-0.33-1.84
		c0-0.67,0.11-1.3,0.33-1.88c0.22-0.58,0.52-1.09,0.9-1.52s0.83-0.77,1.36-1.03c0.52-0.25,1.1-0.38,1.71-0.38
		c0.77,0,1.41,0.15,1.92,0.44c0.51,0.29,0.92,0.7,1.23,1.21v-1.48h1.34V-9.61z M85.71-14.81c-0.05-0.38-0.15-0.74-0.31-1.08
		c-0.16-0.34-0.37-0.63-0.63-0.88c-0.26-0.25-0.56-0.45-0.91-0.59c-0.35-0.14-0.73-0.22-1.14-0.22c-0.47,0-0.89,0.09-1.27,0.28
		c-0.38,0.19-0.7,0.43-0.96,0.75c-0.26,0.31-0.46,0.67-0.6,1.08c-0.14,0.41-0.21,0.83-0.21,1.28c0,0.43,0.07,0.85,0.21,1.25
		c0.14,0.4,0.34,0.76,0.6,1.06c0.26,0.31,0.58,0.55,0.96,0.74c0.38,0.19,0.8,0.28,1.27,0.28c0.41,0,0.79-0.07,1.13-0.22
		c0.34-0.14,0.64-0.34,0.9-0.58s0.47-0.52,0.64-0.86c0.17-0.33,0.27-0.68,0.32-1.05V-14.81z"/>
</g>
</svg>
