<svg xmlns="http://www.w3.org/2000/svg" xmlns:xlink="http://www.w3.org/1999/xlink" version="1.1" id="Layer_1" x="0px" y="0px" viewBox="0 0 21 18" style="enable-background:new 0 0 21 18;" xml:space="preserve">
<style type="text/css">
	.st0{fill:#737473;}
</style>
<g>
	<path class="st0" d="M4.35,3.97h1.8l4.27,11.9H8.92l-0.93-2.59H2.52l-0.93,2.59H0.09L4.35,3.97z M7.49,11.86L5.26,5.53l-2.25,6.32   H7.49z"/>
	<path class="st0" d="M19.91,15.87h-1.32v-1.46c-0.31,0.5-0.71,0.89-1.22,1.18c-0.5,0.29-1.13,0.44-1.89,0.44   c-0.61,0-1.17-0.12-1.69-0.37c-0.52-0.25-0.96-0.59-1.34-1.01c-0.37-0.43-0.67-0.92-0.88-1.49c-0.22-0.57-0.32-1.17-0.32-1.81   c0-0.66,0.11-1.28,0.32-1.86c0.21-0.57,0.51-1.07,0.88-1.5c0.37-0.43,0.82-0.76,1.34-1.01c0.52-0.25,1.08-0.37,1.69-0.37   c0.76,0,1.39,0.14,1.89,0.44s0.91,0.69,1.22,1.2V6.78h1.32V15.87z M18.59,10.74c-0.04-0.38-0.15-0.73-0.31-1.07   c-0.16-0.33-0.37-0.62-0.62-0.87c-0.25-0.25-0.55-0.44-0.89-0.59C16.43,8.07,16.06,8,15.65,8c-0.46,0-0.88,0.09-1.26,0.28   c-0.37,0.18-0.69,0.43-0.94,0.74c-0.25,0.31-0.45,0.66-0.59,1.07c-0.14,0.4-0.21,0.82-0.21,1.26c0,0.43,0.07,0.84,0.21,1.23   c0.14,0.4,0.33,0.75,0.59,1.05c0.25,0.3,0.57,0.55,0.94,0.73c0.37,0.18,0.79,0.28,1.26,0.28c0.41,0,0.78-0.07,1.12-0.21   c0.34-0.14,0.63-0.33,0.88-0.57c0.25-0.24,0.46-0.52,0.63-0.84c0.17-0.33,0.27-0.67,0.31-1.04V10.74z"/>
</g>
</svg>
