<?xml version="1.0" encoding="utf-8"?>
<!-- Generator: Adobe Illustrator 27.6.1, SVG Export Plug-In . SVG Version: 6.00 Build 0)  -->
<svg version="1.1" id="Layer_1" xmlns="http://www.w3.org/2000/svg" xmlns:xlink="http://www.w3.org/1999/xlink" x="0px" y="0px"
	 viewBox="0 0 20 20" style="enable-background:new 0 0 20 20;" xml:space="preserve">
<style type="text/css">
	.st0{fill:#737473;}
</style>
<path class="st0" d="M16.19,15.32l-3.8-3.8c0.71-0.86,1.15-1.94,1.15-3.14c0-2.74-2.23-4.97-4.97-4.97S3.59,5.64,3.59,8.38
	s2.23,4.97,4.97,4.97c1,0,1.94-0.3,2.72-0.82l3.84,3.84c0.15,0.15,0.34,0.22,0.53,0.22s0.38-0.07,0.53-0.22
	C16.48,16.08,16.48,15.61,16.19,15.32z M4.79,8.38c0-2.08,1.69-3.77,3.78-3.77s3.77,1.69,3.77,3.77s-1.69,3.77-3.77,3.77
	S4.79,10.46,4.79,8.38z"/>
</svg>
