<?xml version="1.0" encoding="utf-8"?>
<!-- Generator: Adobe Illustrator 27.6.1, SVG Export Plug-In . SVG Version: 6.00 Build 0)  -->
<svg version="1.1" id="Layer_1" xmlns="http://www.w3.org/2000/svg" xmlns:xlink="http://www.w3.org/1999/xlink" x="0px" y="0px"
	 viewBox="0 0 20 20" style="enable-background:new 0 0 20 20;" xml:space="preserve">
<style type="text/css">
	.st0{fill:#737473;}
</style>
<path class="st0" d="M17.87,2.49H2.13C1,2.49,0.07,3.41,0.07,4.55v10.91c0,1.14,0.92,2.06,2.06,2.06h15.73
	c1.14,0,2.06-0.92,2.06-2.06V4.55C19.93,3.41,19,2.49,17.87,2.49z M18.93,4.55v2.61h-8.39l0.05-3.68h7.28
	C18.45,3.49,18.93,3.96,18.93,4.55z M10.52,8.16h8.4v3.68h-8.45L10.52,8.16z M9.48,11.84h-8.4V8.16h8.45L9.48,11.84z M2.13,3.49
	h7.45L9.53,7.16H1.07V4.55C1.07,3.96,1.55,3.49,2.13,3.49z M1.07,15.45v-2.62h8.39l-0.05,3.68H2.13
	C1.55,16.51,1.07,16.04,1.07,15.45z M17.87,16.51h-7.45l0.05-3.68h8.46v2.62C18.93,16.04,18.45,16.51,17.87,16.51z"/>
</svg>
