<?xml version="1.0" encoding="utf-8"?>
<!-- Generator: Adobe Illustrator 27.6.1, SVG Export Plug-In . SVG Version: 6.00 Build 0)  -->
<svg version="1.1" id="Layer_1" xmlns="http://www.w3.org/2000/svg" xmlns:xlink="http://www.w3.org/1999/xlink" x="0px" y="0px"
	 viewBox="0 0 20 20" style="enable-background:new 0 0 20 20;" xml:space="preserve">
<style type="text/css">
	.st0{fill:#737473;}
</style>
<g>
	<path class="st0" d="M10.33,8.1c-0.1-0.1-0.25-0.16-0.36-0.15L9.95,7.94L9.9,7.97C9.67,8.02,9.51,8.23,9.53,8.43l0,7.68
		c-0.01,0.12,0.04,0.25,0.13,0.34c0.09,0.1,0.22,0.15,0.34,0.15c0.26,0,0.47-0.22,0.47-0.48l0-7.68C10.48,8.32,10.43,8.19,10.33,8.1
		z"/>
	<path class="st0" d="M7.06,8.03c-0.1-0.08-0.23-0.12-0.35-0.1l-0.1,0.01L6.58,7.96C6.5,7.99,6.43,8.04,6.38,8.11
		c-0.07,0.1-0.11,0.23-0.09,0.34l0.95,7.77c0.02,0.13,0.08,0.24,0.19,0.32c0.08,0.06,0.18,0.1,0.27,0.1c0.02,0,0.03,0,0.05,0
		c0.12-0.01,0.23-0.07,0.32-0.16c0.08-0.1,0.13-0.22,0.12-0.36L7.23,8.36C7.22,8.23,7.16,8.11,7.06,8.03z"/>
	<path class="st0" d="M16.8,4.76c-0.11-0.89-0.81-1.59-1.6-1.59h-1.94V2.62c0-0.91-0.65-1.65-1.45-1.65l-3.63,0
		c-0.81,0-1.44,0.73-1.44,1.65v0.55H4.79C4,3.17,3.32,3.85,3.2,4.76L3.06,5.84C3.04,5.97,3.09,6.1,3.18,6.21
		c0.09,0.1,0.22,0.16,0.35,0.16h0.03l1.5,11.07c0.11,0.89,0.81,1.59,1.59,1.59h6.68c0.79,0,1.47-0.68,1.6-1.59l1.5-11.07h0.03
		c0.13,0,0.27-0.06,0.36-0.17c0.09-0.1,0.13-0.24,0.12-0.37L16.8,4.76z M8.18,1.92h3.63c0.24,0,0.5,0.27,0.5,0.7v0.55H7.68V2.62
		C7.68,2.19,7.94,1.92,8.18,1.92z M13.33,18.09H6.66c-0.26,0-0.6-0.33-0.65-0.77L4.52,6.37h10.96l-1.49,10.95
		C13.93,17.75,13.59,18.09,13.33,18.09z M4.07,5.43l0.07-0.55C4.2,4.44,4.53,4.11,4.79,4.11H15.2c0.26,0,0.6,0.33,0.65,0.77
		l0.07,0.55H4.07z"/>
	<path class="st0" d="M13.19,7.92l-0.1,0.01l-0.03,0.03c-0.16,0.06-0.28,0.22-0.29,0.39l-0.96,7.78c-0.01,0.12,0.03,0.24,0.11,0.34
		c0.08,0.1,0.2,0.16,0.31,0.17c0.02,0,0.04,0,0.06,0c0.1,0,0.2-0.04,0.29-0.1c0.1-0.08,0.17-0.2,0.17-0.32l0.96-7.77
		c0.02-0.14-0.03-0.28-0.14-0.38C13.47,7.96,13.33,7.91,13.19,7.92z"/>
</g>
<g>
	<path class="st0" d="M71.28-21.67h1.83l4.32,12.06H75.9l-0.94-2.63h-5.55l-0.94,2.63h-1.53L71.28-21.67z M74.46-13.67l-2.26-6.41
		l-2.28,6.41H74.46z"/>
	<path class="st0" d="M87.05-9.61h-1.34v-1.48c-0.31,0.5-0.72,0.9-1.23,1.2c-0.51,0.29-1.15,0.44-1.92,0.44
		c-0.61,0-1.18-0.13-1.71-0.38c-0.53-0.25-0.98-0.59-1.36-1.03s-0.68-0.94-0.9-1.51c-0.22-0.58-0.33-1.19-0.33-1.84
		c0-0.67,0.11-1.3,0.33-1.88c0.22-0.58,0.52-1.09,0.9-1.52s0.83-0.77,1.36-1.03c0.52-0.25,1.1-0.38,1.71-0.38
		c0.77,0,1.41,0.15,1.92,0.44c0.51,0.29,0.92,0.7,1.23,1.21v-1.48h1.34V-9.61z M85.71-14.81c-0.05-0.38-0.15-0.74-0.31-1.08
		c-0.16-0.34-0.37-0.63-0.63-0.88c-0.26-0.25-0.56-0.45-0.91-0.59c-0.35-0.14-0.73-0.22-1.14-0.22c-0.47,0-0.89,0.09-1.27,0.28
		c-0.38,0.19-0.7,0.43-0.96,0.75c-0.26,0.31-0.46,0.67-0.6,1.08c-0.14,0.41-0.21,0.83-0.21,1.28c0,0.43,0.07,0.85,0.21,1.25
		c0.14,0.4,0.34,0.76,0.6,1.06c0.26,0.31,0.58,0.55,0.96,0.74c0.38,0.19,0.8,0.28,1.27,0.28c0.41,0,0.79-0.07,1.13-0.22
		c0.34-0.14,0.64-0.34,0.9-0.58s0.47-0.52,0.64-0.86c0.17-0.33,0.27-0.68,0.32-1.05V-14.81z"/>
</g>
</svg>
