<?xml version="1.0" encoding="UTF-8" standalone="no"?>
<svg
   width="24"
   height="24"
   viewBox="0 0 24 24"
   fill="none"
   stroke="currentColor"
   stroke-width="2"
   stroke-linecap="round"
   stroke-linejoin="round"
   class="lucide lucide-trash-icon lucide-trash"
   version="1.1"
   id="svg3"
   inkscape:version="1.3 (0e150ed6c4, 2023-07-21)"
   xmlns:inkscape="http://www.inkscape.org/namespaces/inkscape"
   xmlns:sodipodi="http://sodipodi.sourceforge.net/DTD/sodipodi-0.dtd"
   xmlns="http://www.w3.org/2000/svg"
   xmlns:svg="http://www.w3.org/2000/svg">
  <defs
     id="defs3" />
  <path
     d="M19 6v14a2 2 0 0 1-2 2H7a2 2 0 0 1-2-2V6"
     id="path1" fill="none" />
  <path
     d="M3 6h18"
     id="path2" fill="none" />
  <path
     d="M8 6V4a2 2 0 0 1 2-2h4a2 2 0 0 1 2 2v2"
     id="path3" fill="none" />
  <path
     style="fill:none;stroke-width:2;stroke-dasharray:none"
     id="path4"
     d="m 9.2097795,11.555884 a 3.928,3.928009 0 0 1 4.5034435,-1.031406 3.928,3.928009 0 0 1 2.369566,3.96611 3.928,3.928009 0 0 1 -3.042379,3.476893 3.928,3.928009 0 0 1 -4.2454839,-1.822272"
     fill="none"/>
  <path
     d="m 7.8529332,10.795394 v 2.011682 h 2.0116825"
     id="path2-7-0"
     style="stroke-width:2;stroke-dasharray:none" 
     fill="none" />
</svg>
