<?xml version="1.0" encoding="utf-8"?>
<!-- Generator: Adobe Illustrator 27.6.1, SVG Export Plug-In . SVG Version: 6.00 Build 0)  -->
<svg version="1.1" id="Layer_1" xmlns="http://www.w3.org/2000/svg" xmlns:xlink="http://www.w3.org/1999/xlink" x="0px" y="0px"
	 viewBox="0 0 20 20" style="enable-background:new 0 0 20 20;" xml:space="preserve">
<style type="text/css">
	.st0{fill:#737473;}
</style>
<g>
	<path class="st0" d="M9.45,2.69v9.55h1.16V2.69l2.13,2.13L13.55,4l-3.11-3.11c-0.11-0.11-0.26-0.17-0.41-0.17
		c-0.15,0-0.3,0.06-0.41,0.17L6.5,4l0.82,0.82L9.45,2.69z"/>
	<path class="st0" d="M14.5,6.29h-1.74v1.2h1.74c0.91,0,1.65,0.74,1.65,1.65v7.29c0,0.91-0.74,1.65-1.65,1.65h-9
		c-0.91,0-1.65-0.74-1.65-1.65V9.14c0-0.91,0.74-1.65,1.65-1.65h1.77v-1.2H5.5c-1.57,0-2.85,1.28-2.85,2.85v7.29
		c0,1.57,1.28,2.85,2.85,2.85h9c1.57,0,2.85-1.28,2.85-2.85V9.14C17.35,7.57,16.07,6.29,14.5,6.29z"/>
</g>
</svg>
